<?xml version="1.0" standalone="no"?>
<!DOCTYPE svg PUBLIC "-//W3C//DTD SVG 20010904//EN"
 "http://www.w3.org/TR/2001/REC-SVG-20010904/DTD/svg10.dtd">
<svg version="1.0" xmlns="http://www.w3.org/2000/svg"
 width="920.000000pt" height="512.000000pt" viewBox="0 0 920.000000 512.000000"
 preserveAspectRatio="xMidYMid meet">

<g transform="translate(0.000000,512.000000) scale(0.100000,-0.100000)"
fill="#000000" stroke="none">
<path d="M4395 5109 c-209 -16 -482 -75 -673 -145 -141 -52 -401 -183 -520
-261 -379 -254 -691 -602 -887 -993 -289 -575 -350 -1247 -169 -1870 239 -828
907 -1494 1739 -1736 461 -134 969 -133 1435 2 577 167 1087 546 1422 1059
210 321 338 665 394 1060 21 146 23 496 5 635 -79 595 -319 1089 -731 1501
-301 302 -615 497 -1010 628 -303 101 -674 145 -1005 120z m601 -720 c95 -189
27 -422 -192 -658 -31 -34 -107 -104 -169 -156 -144 -121 -227 -212 -268 -294
-29 -59 -32 -74 -32 -156 0 -118 19 -164 139 -342 95 -141 131 -202 123 -209
-2 -2 -72 65 -155 150 -157 160 -234 263 -272 364 -29 77 -25 176 10 246 38
76 158 195 345 344 268 214 360 319 412 471 24 72 31 217 13 279 -8 30 -7 32
6 21 9 -7 26 -34 40 -60z m374 -633 c0 -2 -53 -36 -117 -76 -222 -136 -376
-266 -421 -356 -49 -98 -34 -165 73 -325 41 -61 80 -130 86 -152 29 -109 -42
-240 -185 -341 -88 -62 -95 -64 -57 -21 46 53 71 111 71 168 0 63 -17 100 -84
189 -31 40 -71 102 -89 138 -30 60 -32 73 -32 165 0 90 3 106 28 156 87 171
285 305 627 425 108 38 100 35 100 30z m350 -1187 c58 -25 123 -93 141 -146 6
-19 9 -61 7 -93 -11 -148 -168 -287 -431 -379 -49 -17 -93 -31 -98 -31 -23 0
-4 17 49 45 228 119 368 302 332 435 -30 111 -158 175 -279 140 -44 -12 -50
-6 -16 16 73 47 202 53 295 13z m-1525 -9 c-3 -5 -14 -10 -23 -10 -36 0 -258
-82 -290 -106 -31 -24 -32 -27 -17 -44 30 -34 117 -43 420 -46 355 -3 626 16
930 66 61 10 112 16 114 14 2 -1 -12 -9 -31 -17 -19 -8 -53 -26 -76 -41 -166
-104 -1055 -154 -1444 -80 -102 19 -155 41 -170 67 -9 18 -6 25 20 47 64 53
310 133 461 149 110 12 113 12 106 1z m-156 -419 c-58 -79 18 -104 351 -117
170 -7 320 4 537 37 l143 23 22 -21 c13 -11 43 -31 68 -43 44 -22 44 -23 20
-32 -45 -17 -293 -66 -400 -80 -159 -20 -511 -16 -635 6 -166 30 -265 79 -265
130 0 30 43 69 110 100 70 33 75 32 49 -3z m88 -369 c-10 -10 -17 -24 -17 -31
0 -20 59 -38 160 -50 211 -25 373 -20 584 15 l98 16 83 -41 c46 -23 88 -41 94
-41 6 0 11 -4 11 -9 0 -13 -169 -68 -282 -92 -62 -14 -150 -22 -263 -26 -244
-8 -396 15 -525 80 -79 40 -103 73 -80 114 15 26 109 82 139 83 11 0 11 -4 -2
-18z m-257 -243 c10 -6 2 -8 -25 -9 -87 0 -278 -71 -292 -107 -15 -38 96 -78
297 -107 513 -74 1537 -20 1760 94 49 25 63 44 58 80 -5 36 -2 37 29 8 120
-113 -278 -251 -862 -298 -291 -24 -752 -13 -1075 26 -342 41 -430 67 -430
129 0 102 427 247 540 184z m1986 -247 c-50 -96 -265 -185 -551 -227 -378 -55
-933 -59 -1273 -9 -108 16 -227 48 -237 64 -3 5 0 8 7 5 46 -17 324 -37 579
-42 414 -8 708 15 1019 78 212 42 402 111 447 161 23 26 28 7 9 -30z"/>
</g>
</svg>
