<?xml version="1.0" standalone="no"?>
<!DOCTYPE svg PUBLIC "-//W3C//DTD SVG 20010904//EN"
 "http://www.w3.org/TR/2001/REC-SVG-20010904/DTD/svg10.dtd">
<svg version="1.0" xmlns="http://www.w3.org/2000/svg"
 width="512.000000pt" height="512.000000pt" viewBox="0 0 512.000000 512.000000"
 preserveAspectRatio="xMidYMid meet">

<g transform="translate(0.000000,512.000000) scale(0.100000,-0.100000)"
fill="#000000" stroke="none">
<path d="M2310 4619 c-386 -49 -775 -218 -1070 -464 -99 -83 -261 -251 -333
-347 -202 -269 -334 -579 -394 -923 -24 -140 -24 -499 0 -640 82 -471 289
-865 628 -1190 508 -488 1237 -682 1920 -510 295 75 578 215 809 402 98 80
281 268 353 365 573 768 553 1810 -50 2558 -78 96 -256 268 -355 343 -294 220
-644 361 -1008 406 -97 13 -404 12 -500 0z m1258 -396 c38 -130 342 -1278 342
-1293 0 -11 -38 -84 -85 -164 -47 -80 -90 -157 -96 -170 -10 -22 -2 -42 85
-190 53 -90 96 -173 96 -183 0 -19 -346 -1323 -353 -1329 -2 -2 -181 43 -398
101 -217 59 -504 135 -639 171 -135 35 -259 71 -275 79 -35 18 -32 14 -138
200 -44 77 -85 144 -91 148 -6 5 -96 6 -201 3 l-190 -6 -492 493 -493 492 492
493 493 494 191 -5 c106 -2 196 -2 202 2 5 3 50 79 101 167 50 89 96 166 103
171 7 6 166 52 353 102 187 50 480 129 650 175 171 47 315 85 321 85 6 1 16
-16 22 -36z"/>
<path d="M2845 3699 c-104 -27 -319 -83 -477 -123 -192 -50 -298 -82 -320 -98
-34 -23 -710 -712 -716 -729 -2 -5 233 -9 576 -9 l580 0 80 138 c376 649 500
872 484 871 -9 0 -102 -23 -207 -50z"/>
<path d="M3070 3084 c-157 -272 -285 -501 -285 -508 0 -14 567 -1005 576
-1006 7 0 279 980 279 1006 0 26 -272 1004 -279 1004 -3 0 -134 -223 -291
-496z"/>
<path d="M1332 2401 c2 -5 166 -175 364 -378 l361 -368 502 -129 c276 -71 503
-127 505 -125 6 6 -564 992 -578 1001 -16 11 -1158 10 -1154 -1z"/>
<path d="M3980 4306 c0 -2 8 -10 18 -17 15 -13 16 -12 3 4 -13 16 -21 21 -21
13z"/>
<path d="M4070 4225 c19 -19 36 -35 39 -35 3 0 -10 16 -29 35 -19 19 -36 35
-39 35 -3 0 10 -16 29 -35z"/>
<path d="M4240 4058 c41 -45 50 -53 50 -45 0 2 -21 23 -47 47 l-48 45 45 -47z"/>
<path d="M4305 3980 c10 -11 20 -20 23 -20 3 0 -3 9 -13 20 -10 11 -20 20 -23
20 -3 0 3 -9 13 -20z"/>
<path d="M4380 3883 c29 -40 54 -73 57 -73 7 0 -78 118 -95 132 -8 7 9 -20 38
-59z"/>
<path d="M4455 3776 c10 -16 26 -44 37 -63 11 -18 22 -33 25 -33 7 0 -35 71
-59 100 l-20 25 17 -29z"/>
<path d="M4588 3531 c37 -76 69 -137 71 -135 4 4 -126 274 -133 274 -2 0 25
-63 62 -139z"/>
<path d="M4666 3360 c3 -14 11 -32 16 -40 6 -10 7 -7 2 10 -3 14 -11 32 -16
40 -6 10 -7 7 -2 -10z"/>
<path d="M4711 3235 c0 -5 8 -37 19 -70 11 -33 17 -44 13 -25 -6 38 -31 111
-32 95z"/>
<path d="M4752 3085 c0 -11 4 -31 8 -45 6 -20 8 -21 8 -5 0 11 -4 31 -8 45 -6
20 -8 21 -8 5z"/>
<path d="M4772 2990 c0 -14 2 -19 5 -12 2 6 2 18 0 25 -3 6 -5 1 -5 -13z"/>
<path d="M4782 2935 c0 -16 2 -22 5 -12 2 9 2 23 0 30 -3 6 -5 -1 -5 -18z"/>
<path d="M4792 2870 c0 -19 2 -27 5 -17 2 9 2 25 0 35 -3 9 -5 1 -5 -18z"/>
<path d="M4803 2785 c0 -27 2 -38 4 -22 2 15 2 37 0 50 -2 12 -4 0 -4 -28z"/>
<path d="M4814 2560 c0 -96 2 -136 3 -87 2 48 2 126 0 175 -1 48 -3 8 -3 -88z"/>
<path d="M4803 2335 c0 -27 2 -38 4 -22 2 15 2 37 0 50 -2 12 -4 0 -4 -28z"/>
<path d="M4791 2255 c-1 -16 -12 -84 -26 -150 -26 -128 -27 -172 -2 -58 25
111 39 200 34 220 -3 11 -5 7 -6 -12z"/>
<path d="M4716 1906 c-10 -35 -37 -112 -61 -172 -24 -60 -42 -110 -41 -112 2
-1 20 36 40 83 41 99 91 253 84 261 -3 2 -13 -24 -22 -60z"/>
<path d="M4577 1555 c-15 -30 -25 -55 -22 -55 7 0 57 101 53 106 -2 2 -16 -21
-31 -51z"/>
<path d="M4490 1401 c-74 -127 -192 -281 -312 -407 -63 -67 -76 -84 -34 -44
129 124 291 331 376 483 50 90 29 67 -30 -32z"/>
<path d="M4034 858 l-29 -33 33 29 c17 17 32 31 32 33 0 8 -8 1 -36 -29z"/>
<path d="M3969 803 c-13 -16 -12 -17 4 -4 16 13 21 21 13 21 -2 0 -10 -8 -17
-17z"/>
</g>
</svg>
