<?xml version="1.0" standalone="no"?>
<!DOCTYPE svg PUBLIC "-//W3C//DTD SVG 20010904//EN"
 "http://www.w3.org/TR/2001/REC-SVG-20010904/DTD/svg10.dtd">
<svg version="1.0" xmlns="http://www.w3.org/2000/svg"
 width="421.000000pt" height="500.000000pt" viewBox="0 0 421.000000 500.000000"
 preserveAspectRatio="xMidYMid meet">

<g transform="translate(0.000000,500.000000) scale(0.100000,-0.100000)"
fill="#000000" stroke="none">
<path d="M1903 4886 c-101 -20 -227 -89 -304 -165 -74 -74 -137 -188 -164
-301 -25 -102 -29 -290 -11 -581 9 -146 16 -330 16 -409 0 -140 -1 -144 -31
-203 -17 -34 -43 -78 -57 -98 -56 -77 -144 -188 -234 -296 -93 -112 -158 -222
-173 -293 -29 -143 -141 -419 -227 -558 -77 -125 -89 -162 -89 -262 0 -68 4
-97 17 -120 20 -33 29 -37 37 -17 6 17 73 37 124 37 28 0 51 -8 79 -29 92 -68
215 -218 295 -361 23 -41 101 -167 173 -278 72 -112 130 -212 130 -223 -1 -10
2 -19 6 -19 4 0 7 -6 7 -12 1 -7 5 -48 9 -91 7 -77 7 -78 -32 -153 -41 -80
-74 -112 -151 -146 -78 -34 -234 -20 -419 37 -43 14 -135 32 -204 40 -69 9
-146 20 -171 26 -25 5 -57 11 -70 13 -14 1 -30 6 -37 10 -7 4 -12 5 -12 2 0
-2 -28 2 -63 10 -34 8 -95 16 -135 18 -49 2 -79 8 -89 18 -27 28 -27 87 1 162
15 38 25 71 22 73 -7 8 -56 -139 -56 -170 0 -70 35 -93 208 -136 66 -17 133
-36 148 -41 15 -6 124 -35 243 -66 122 -31 268 -76 336 -104 147 -59 193 -71
260 -71 90 0 159 26 223 86 32 30 71 57 88 61 16 3 40 19 54 34 22 23 38 28
110 36 136 14 823 9 895 -7 55 -13 60 -17 69 -49 32 -112 220 -190 389 -162
106 18 166 52 278 158 119 113 214 185 331 250 48 27 85 50 83 52 -6 7 -155
-77 -222 -125 -35 -25 -63 -41 -63 -36 0 4 -10 -3 -21 -17 -11 -14 -18 -19
-14 -12 10 19 -2 15 -104 -37 -172 -87 -238 -102 -352 -81 -88 16 -106 28
-148 95 -62 98 -73 131 -70 210 6 142 -3 410 -13 420 -8 7 -9 5 -4 -5 4 -9 1
-8 -7 3 -14 17 -16 16 -33 -12 -11 -16 -46 -54 -79 -84 -261 -234 -499 -328
-797 -314 -208 9 -290 46 -380 172 -62 86 -69 105 -39 105 35 0 107 37 134 70
30 35 32 55 16 115 -16 56 -51 98 -148 173 -122 95 -238 188 -294 234 -50 43
-206 192 -171 164 11 -9 22 -16 25 -16 2 0 4 60 5 133 1 144 18 251 60 370 29
81 159 353 210 438 19 32 34 70 34 87 0 47 28 170 50 220 24 54 169 300 181
308 5 3 9 43 9 90 0 72 8 112 26 133 2 3 39 -32 82 -77 106 -111 162 -137 276
-129 103 7 162 30 175 68 12 35 10 36 -82 8 -52 -15 -90 -20 -140 -17 -65 4
-71 6 -104 41 -19 21 -33 43 -30 50 2 7 28 13 68 14 35 1 84 5 109 9 25 3 55
7 68 8 12 0 22 5 22 9 0 5 4 5 10 2 13 -8 105 32 126 56 9 10 21 19 26 19 5 0
42 25 82 55 41 31 78 55 82 53 5 -1 20 2 34 6 25 9 25 9 3 17 -17 6 -43 -6
-125 -60 -126 -82 -179 -107 -282 -133 -104 -26 -255 -23 -302 7 -88 56 -143
99 -138 106 3 5 9 7 13 5 4 -3 7 5 6 17 -1 12 2 31 8 42 7 13 6 20 -2 23 -6 2
-11 8 -11 13 0 6 4 8 9 4 5 -3 20 9 32 27 13 18 28 36 34 40 6 5 4 8 -5 8 -9
0 -4 9 15 24 16 13 34 22 39 19 5 -4 6 -1 2 5 -4 7 -1 12 8 12 8 0 18 5 22 12
5 7 3 8 -7 3 -12 -7 -12 -6 -1 7 7 9 41 30 75 47 55 28 72 31 149 31 63 0 102
-6 140 -20 47 -18 51 -18 33 -3 -12 10 -31 40 -44 66 -19 38 -22 60 -19 107 4
55 7 62 55 109 27 27 77 63 111 80 59 30 61 30 109 16 49 -15 110 -65 99 -83
-3 -5 6 -24 20 -43 59 -80 71 -238 25 -328 -22 -43 -23 -43 -67 -38 -24 2 -44
3 -44 1 0 -2 24 -11 54 -19 74 -22 87 -43 79 -135 -4 -52 -13 -81 -30 -107
-13 -19 -19 -32 -14 -29 14 9 61 -56 61 -83 0 -12 40 -102 89 -199 86 -172
101 -215 137 -392 4 -20 25 -55 51 -84 114 -127 194 -328 222 -556 17 -130 14
-414 -4 -483 -19 -73 -19 -74 4 -82 17 -5 18 -16 17 -124 -1 -135 7 -159 63
-188 20 -10 38 -20 41 -23 3 -3 17 -5 33 -5 15 1 27 -2 27 -5 0 -9 21 -11 83
-9 9 0 17 3 17 7 0 4 18 7 40 5 22 -1 40 2 40 8 0 5 9 9 20 9 11 0 20 4 20 9
0 5 11 12 25 15 14 4 24 10 21 15 -3 4 6 19 20 32 34 31 107 134 130 182 10
20 23 37 30 37 13 0 18 16 45 130 16 70 17 316 1 395 -39 187 -78 312 -164
515 -56 134 -76 166 -174 271 -128 139 -163 188 -280 394 -171 299 -189 364
-204 710 -10 241 -27 386 -55 466 -23 63 -87 180 -136 244 -148 197 -494 314
-766 261z m-153 -756 c43 -37 62 -63 74 -97 23 -66 21 -138 -5 -179 -30 -48
-44 -43 -47 18 -3 69 -29 119 -74 143 -30 16 -40 17 -63 7 -32 -15 -55 -67
-55 -127 0 -55 18 -100 54 -139 l27 -28 -20 -22 c-11 -11 -20 -25 -21 -31 -2
-15 -33 -6 -48 13 -7 9 -22 48 -33 87 -27 91 -24 223 7 276 12 19 24 46 27 59
8 29 62 68 96 69 14 1 45 -18 81 -49z m-40 -169 c15 -29 12 -38 -5 -15 -11 14
-14 15 -15 4 0 -13 -1 -13 -10 0 -14 21 -12 30 5 30 8 0 19 -9 25 -19z m1020
-551 c30 -27 57 -47 59 -44 3 3 -1 9 -9 14 -8 5 -11 12 -7 16 3 4 13 2 20 -5
13 -10 14 -25 9 -82 -1 -11 -14 -18 -37 -21 -31 -4 -35 -1 -35 19 0 13 -5 23
-11 23 -6 0 -8 7 -5 16 3 8 2 13 -3 10 -5 -3 -11 4 -14 16 -4 12 -2 25 3 28 5
3 5 12 1 19 -5 7 -14 10 -20 7 -6 -4 -11 -5 -11 -2 0 2 -3 11 -6 20 -10 27 9
17 66 -34z m-993 -66 c-3 -3 -12 -4 -19 -1 -8 3 -5 6 6 6 11 1 17 -2 13 -5z
m-830 -1486 c-2 -18 -4 -6 -4 27 0 33 2 48 4 33 2 -15 2 -42 0 -60z m17 -98
c4 -30 5 -52 2 -49 -9 9 -24 98 -18 104 8 8 9 5 16 -55z m2626 -172 c0 -6 -6
-5 -15 2 -8 7 -15 14 -15 16 0 2 7 1 15 -2 8 -4 15 -11 15 -16z m-160 -358
c-8 -5 -19 -10 -25 -10 -5 0 -3 5 5 10 8 5 20 10 25 10 6 0 3 -5 -5 -10z"/>
<path d="M2245 4041 c-46 -20 -95 -101 -95 -157 0 -47 23 -106 44 -114 120
-49 148 -58 138 -48 -9 9 -2 21 28 54 37 40 40 48 40 99 0 31 -6 71 -14 89
-23 55 -97 96 -141 77z m87 -58 c9 -10 19 -28 22 -40 6 -19 1 -17 -33 14 -23
20 -41 38 -41 40 0 11 39 0 52 -14z"/>
<path d="M1784 3775 c-16 -12 -16 -14 -3 -15 9 0 22 7 29 15 16 19 0 19 -26 0z"/>
<path d="M2015 3775 c38 -18 58 -19 53 -2 -3 6 -22 13 -44 14 l-39 2 30 -14z"/>
<path d="M2400 3410 c-9 -6 -10 -10 -3 -10 6 0 15 5 18 10 8 12 4 12 -15 0z"/>
<path d="M649 1543 c-13 -16 -12 -17 4 -4 9 7 17 15 17 17 0 8 -8 3 -21 -13z"/>
<path d="M610 1480 c-11 -22 -18 -40 -15 -40 2 0 14 18 25 40 11 22 18 40 15
40 -2 0 -14 -18 -25 -40z"/>
<path d="M561 1406 c-12 -12 -40 -29 -62 -35 -23 -7 -39 -14 -37 -16 10 -10
80 21 104 47 15 15 25 28 23 28 -3 0 -15 -11 -28 -24z"/>
<path d="M242 1350 c-44 -18 -103 -93 -86 -110 6 -6 10 -2 11 12 3 36 63 87
113 97 35 7 38 9 15 9 -16 1 -40 -3 -53 -8z"/>
<path d="M413 1353 c9 -2 23 -2 30 0 6 3 -1 5 -18 5 -16 0 -22 -2 -12 -5z"/>
<path d="M151 1174 c0 -11 3 -14 6 -6 3 7 2 16 -1 19 -3 4 -6 -2 -5 -13z"/>
<path d="M161 1044 c0 -11 3 -14 6 -6 3 7 2 16 -1 19 -3 4 -6 -2 -5 -13z"/>
<path d="M171 854 c0 -11 3 -14 6 -6 3 7 2 16 -1 19 -3 4 -6 -2 -5 -13z"/>
<path d="M166 799 c-8 -42 0 -50 9 -9 4 17 5 34 2 36 -2 3 -7 -10 -11 -27z"/>
<path d="M3980 679 c-22 -18 -22 -19 -3 -10 12 6 25 16 28 21 9 15 3 12 -25
-11z"/>
<path d="M3850 610 c-8 -5 -10 -10 -5 -10 6 0 17 5 25 10 8 5 11 10 5 10 -5 0
-17 -5 -25 -10z"/>
</g>
</svg>
